grf
version=1
nRows=7
nColumns=37
inDegrees=no
endheader
time	ground_force_1_vx	ground_force_1_vy	ground_force_1_vz	ground_force_1_px	ground_force_1_py	ground_force_1_pz	ground_moment_1_mx	ground_moment_1_my	ground_moment_1_mz	ground_force_2_vx	ground_force_2_vy	ground_force_2_vz	ground_force_2_px	ground_force_2_py	ground_force_2_pz	ground_moment_2_mx	ground_moment_2_my	ground_moment_2_mz	ground_force_3_vx	ground_force_3_vy	ground_force_3_vz	ground_force_3_px	ground_force_3_py	ground_force_3_pz	ground_moment_3_mx	ground_moment_3_my	ground_moment_3_mz	ground_force_4_vx	ground_force_4_vy	ground_force_4_vz	ground_force_4_px	ground_force_4_py	ground_force_4_pz	ground_moment_4_mx	ground_moment_4_my	ground_moment_4_mz
      1.59000000	      0.00000000	     -0.00000000	      0.00000000	      0.00000000	      0.00000000	      0.00000000	      0.00000000	      0.00000000	      0.00000000	    -19.70594788	     32.41325378	   -505.59603882	   -270.52473709	  -1110.85015076	      0.00000000	      0.00000000	      0.00000000	  11752.22259875	     -5.72658048	    -31.17755458	   -494.62911987	   -260.85744887	   -659.78270453	      0.00000000	      0.00000000	     -0.00000000	 -14650.57077757	      0.00000000	     -0.00000000	      0.00000000	      0.00000000	      0.00000000	      0.00000000	      0.00000000	      0.00000000	      0.00000000
      1.60000000	      0.00000000	     -0.00000000	      0.00000000	      0.00000000	      0.00000000	      0.00000000	      0.00000000	      0.00000000	      0.00000000	    -20.59796524	     32.59186935	   -508.65740967	   -270.97989391	  -1110.04871546	      0.00000000	      0.00000000	      0.00000000	  11433.65438819	     -4.83973994	    -28.88119083	   -490.05395508	   -260.63101174	   -662.34280490	      0.00000000	      0.00000000	     -0.00000000	 -14606.24981470	      0.00000000	     -0.00000000	      0.00000000	      0.00000000	      0.00000000	      0.00000000	      0.00000000	      0.00000000	      0.00000000
      1.61000000	      0.00000000	     -0.00000000	      0.00000000	      0.00000000	      0.00000000	      0.00000000	      0.00000000	      0.00000000	      0.00000000	    -20.96446991	     33.88919449	   -514.27185059	   -271.19002496	  -1110.57698458	      0.00000000	      0.00000000	      0.00000000	  11395.09137718	     -3.79500410	    -26.91863790	   -487.84182739	   -261.30261729	   -661.98160558	      0.00000000	      0.00000000	     -0.00000000	 -14709.37935526	      0.00000000	     -0.00000000	      0.00000000	      0.00000000	      0.00000000	      0.00000000	      0.00000000	      0.00000000	      0.00000000
      1.62000000	      0.00000000	     -0.00000000	      0.00000000	      0.00000000	      0.00000000	      0.00000000	      0.00000000	      0.00000000	      0.00000000	    -20.45979309	     33.61064911	   -518.81127930	   -271.66577743	  -1108.55079384	      0.00000000	      0.00000000	      0.00000000	  11307.35818508	     -1.89330172	    -25.83105071	   -487.68829346	   -263.64679622	   -663.44667949	      0.00000000	      0.00000000	     -0.00000000	 -14690.63743613	      0.00000000	     -0.00000000	      0.00000000	      0.00000000	      0.00000000	      0.00000000	      0.00000000	      0.00000000	      0.00000000
      1.63000000	      0.00000000	     -0.00000000	      0.00000000	      0.00000000	      0.00000000	      0.00000000	      0.00000000	      0.00000000	      0.00000000	    -19.11048889	     32.35433960	   -522.90551758	   -272.99678171	  -1108.12120107	      0.00000000	      0.00000000	      0.00000000	  11173.51486625	      1.63548362	    -24.61121192	   -488.65997314	   -265.99043337	   -663.76810309	      0.00000000	      0.00000000	     -0.00000000	 -14379.37003976	      0.00000000	     -0.00000000	      0.00000000	      0.00000000	      0.00000000	      0.00000000	      0.00000000	      0.00000000	      0.00000000
      1.64000000	      0.00000000	     -0.00000000	      0.00000000	      0.00000000	      0.00000000	      0.00000000	      0.00000000	      0.00000000	      0.00000000	    -18.47397804	     30.59103394	   -526.74426270	   -273.06327633	  -1107.22365889	      0.00000000	      0.00000000	      0.00000000	  11146.01563971	      5.39212724	    -24.91411638	   -486.44390869	   -267.28118996	   -665.30429399	      0.00000000	      0.00000000	     -0.00000000	 -13929.44122846	      0.00000000	     -0.00000000	      0.00000000	      0.00000000	      0.00000000	      0.00000000	      0.00000000	      0.00000000	      0.00000000
      1.65000000	      0.00000000	     -0.00000000	      0.00000000	      0.00000000	      0.00000000	      0.00000000	      0.00000000	      0.00000000	      0.00000000	    -17.68288612	     28.84544373	   -526.91748047	   -273.70876829	  -1106.66391722	      0.00000000	      0.00000000	      0.00000000	  11238.77133073	      8.55445654	    -23.77756194	   -481.97967529	   -269.46186888	   -664.96215966	      0.00000000	      0.00000000	     -0.00000000	 -13679.77972648	      0.00000000	     -0.00000000	      0.00000000	      0.00000000	      0.00000000	      0.00000000	      0.00000000	      0.00000000	      0.00000000
